Results
version=1
nRows=9
nColumns=24
inDegrees=yes
endheader
time	pelvis_tilt	pelvis_list	pelvis_rotation	pelvis_tx	pelvis_ty	pelvis_tz	hip_flexion_r	hip_adduction_r	hip_rotation_r	knee_angle_r	ankle_angle_r	subtalar_angle_r	mtp_angle_r	hip_flexion_l	hip_adduction_l	hip_rotation_l	knee_angle_l	ankle_angle_l	subtalar_angle_l	mtp_angle_l	lumbar_extension	lumbar_bending	lumbar_rotation
      0.84116667	     -0.29416004	      4.58633039	     -2.47148447	     -0.37861126	      1.02365089	      0.30353995	      9.59495332	     -0.96714845	     -0.03794297	    -15.54042615	      2.90379381	     -6.00981442	     12.58766531	     12.32111547	      3.66823538	     -7.65647775	    -61.66954362	     -0.34397721	    -15.37198406	      5.55392164	     -2.70218152	     -4.41900515	      3.55541827
      0.84533333	     -0.30260955	      4.69436561	     -2.71064292	     -0.37354280	      1.02427542	      0.30408569	      9.17246494	     -1.07953129	      0.00574235	    -15.24168638	      3.02365263	     -5.73846790	     12.62526015	     12.85895765	      3.70493050	     -7.92395393	    -61.30931968	     -0.09901352	    -15.05566129	      5.56569249	     -2.71194591	     -4.54139792	      3.95953754
      0.84950000	     -0.30300788	      4.79345784	     -2.95883080	     -0.36848524	      1.02486289	      0.30462814	      8.74295269	     -1.18523299	      0.05556584	    -14.94048503	      3.11490465	     -5.47076592	     12.66313575	     13.37685462	      3.72673052	     -8.19959068	    -60.90794281	      0.13852082	    -14.73129892	      5.58456109	     -2.72857528	     -4.64967615	      4.31981475
      0.85366667	     -0.27873873	      4.88561871	     -3.19843608	     -0.36345869	      1.02544350	      0.30514501	      8.28731380	     -1.28857651	      0.10201984	    -14.63891081	      3.23076767	     -5.19662576	     12.71544302	     13.85924941	      3.74697879	     -8.45098940	    -60.46297892	      0.37754045	    -14.38495126	      5.61661475	     -2.78493067	     -4.73401090	      4.74668845
      0.85783333	     -0.28076057	      4.97513773	     -3.45030721	     -0.35843659	      1.02593061	      0.30568168	      7.86986699	     -1.38797078	      0.15362611	    -14.34997722	      3.32636122	     -4.93294685	     12.76823587	     14.35950397	      3.75178253	     -8.72290683	    -59.98132871	      0.59894615	    -14.04474407	      5.65544353	     -2.80406240	     -4.83246681	      5.11322606
      0.86200000	     -0.25744840	      5.05620633	     -3.69831463	     -0.35343046	      1.02641258	      0.30621331	      7.42286162	     -1.48197315	      0.20264022	    -14.05574174	      3.41852111	     -4.67865567	     12.82407408	     14.82044879	      3.74733701	     -8.98698757	    -59.45659474	      0.80964413	    -13.70828818	      5.70173577	     -2.85712925	     -4.92503140	      5.47562776
      0.86616667	     -0.25871614	      5.13730751	     -3.95614009	     -0.34842201	      1.02681006	      0.30675147	      7.01404978	     -1.57668748	      0.25143304	    -13.77995992	      3.48977832	     -4.43770660	     12.86901809	     15.29375818	      3.73088843	     -9.27236814	    -58.88919945	      0.99843978	    -13.38432518	      5.74311184	     -2.86216525	     -5.01767825	      5.78057927
      0.87033333	     -0.27334531	      5.19902192	     -4.18839332	     -0.34345175	      1.02711912	      0.30725067	      6.61494147	     -1.65133934	      0.30396584	    -13.50092035	      3.61507330	     -4.18093293	     12.93615306	     15.78211878	      3.70399040	     -9.50638462	    -58.30871542	      1.20424337	    -13.05196211	      5.80789493	     -2.88917013	     -5.08716352	      6.20780453
      0.87450000	     -0.25297438	      5.25444575	     -4.43256440	     -0.33847649	      1.02745444	      0.30775871	      6.17682169	     -1.72352252	      0.35984870	    -13.21531545	      3.70491938	     -3.95312326	     12.99786611	     16.21150507	      3.66463038	     -9.75829714	    -57.67508512	      1.38202059	    -12.73525281	      5.87171821	     -2.94229588	     -5.15040677	      6.54529891
